<svg width="36" height="36" viewBox="0 0 36 36" fill="none" xmlns="http://www.w3.org/2000/svg">
<path d="M24.093 12.1C26.4136 12.1 28.6392 13.0218 30.2801 14.6628C31.9211 16.3037 32.843 18.5293 32.843 20.85V31.0583H27.0096V20.85C27.0096 20.0764 26.7023 19.3346 26.1554 18.7876C25.6084 18.2406 24.8665 17.9333 24.093 17.9333C23.3194 17.9333 22.5775 18.2406 22.0306 18.7876C21.4836 19.3346 21.1763 20.0764 21.1763 20.85V31.0583H15.343V20.85C15.343 18.5293 16.2648 16.3037 17.9058 14.6628C19.5467 13.0218 21.7723 12.1 24.093 12.1V12.1Z" stroke="#A5A58D" stroke-width="2" stroke-linecap="round" stroke-linejoin="round"/>
<path d="M9.50966 13.5583H3.67633V31.0583H9.50966V13.5583Z" stroke="#A5A58D" stroke-width="2" stroke-linecap="round" stroke-linejoin="round"/>
<path d="M6.593 9.18331C8.20383 9.18331 9.50966 7.87747 9.50966 6.26664C9.50966 4.65581 8.20383 3.34998 6.593 3.34998C4.98217 3.34998 3.67633 4.65581 3.67633 6.26664C3.67633 7.87747 4.98217 9.18331 6.593 9.18331Z" stroke="#A5A58D" stroke-width="2" stroke-linecap="round" stroke-linejoin="round"/>
</svg>
