<svg width="35" height="35" viewBox="0 0 35 35" fill="none" xmlns="http://www.w3.org/2000/svg">
<path d="M23.3335 11.6667C25.6541 11.6667 27.8797 12.5886 29.5207 14.2296C31.1616 15.8705 32.0835 18.0961 32.0835 20.4167V30.6251H26.2502V20.4167C26.2502 19.6432 25.9429 18.9013 25.3959 18.3544C24.8489 17.8074 24.107 17.5001 23.3335 17.5001C22.5599 17.5001 21.8181 17.8074 21.2711 18.3544C20.7241 18.9013 20.4168 19.6432 20.4168 20.4167V30.6251H14.5835V20.4167C14.5835 18.0961 15.5054 15.8705 17.1463 14.2296C18.7873 12.5886 21.0129 11.6667 23.3335 11.6667V11.6667Z" stroke="#A5A58D" stroke-width="2" stroke-linecap="round" stroke-linejoin="round"/>
<path d="M8.75008 13.125H2.91675V30.625H8.75008V13.125Z" stroke="#A5A58D" stroke-width="2" stroke-linecap="round" stroke-linejoin="round"/>
<path d="M5.83341 8.75008C7.44424 8.75008 8.75008 7.44424 8.75008 5.83341C8.75008 4.22258 7.44424 2.91675 5.83341 2.91675C4.22258 2.91675 2.91675 4.22258 2.91675 5.83341C2.91675 7.44424 4.22258 8.75008 5.83341 8.75008Z" stroke="#A5A58D" stroke-width="2" stroke-linecap="round" stroke-linejoin="round"/>
</svg>
