<svg width="35" height="35" viewBox="0 0 35 35" fill="none" xmlns="http://www.w3.org/2000/svg">
<path d="M23.3334 11.6665C25.654 11.6665 27.8796 12.5884 29.5206 14.2293C31.1615 15.8703 32.0834 18.0959 32.0834 20.4165V30.6248H26.25V20.4165C26.25 19.643 25.9427 18.9011 25.3958 18.3541C24.8488 17.8071 24.1069 17.4998 23.3334 17.4998C22.5598 17.4998 21.818 17.8071 21.271 18.3541C20.724 18.9011 20.4167 19.643 20.4167 20.4165V30.6248H14.5834V20.4165C14.5834 18.0959 15.5052 15.8703 17.1462 14.2293C18.7871 12.5884 21.0127 11.6665 23.3334 11.6665V11.6665Z" stroke="#A5A58D" stroke-width="2" stroke-linecap="round" stroke-linejoin="round"/>
<path d="M8.74996 13.125H2.91663V30.625H8.74996V13.125Z" stroke="#A5A58D" stroke-width="2" stroke-linecap="round" stroke-linejoin="round"/>
<path d="M5.83329 8.74984C7.44412 8.74984 8.74996 7.444 8.74996 5.83317C8.74996 4.22234 7.44412 2.9165 5.83329 2.9165C4.22246 2.9165 2.91663 4.22234 2.91663 5.83317C2.91663 7.444 4.22246 8.74984 5.83329 8.74984Z" stroke="#A5A58D" stroke-width="2" stroke-linecap="round" stroke-linejoin="round"/>
</svg>
