<svg width="36" height="36" viewBox="0 0 36 36" fill="none" xmlns="http://www.w3.org/2000/svg">
<path d="M24.093 12.6223C26.4136 12.6223 28.6392 13.5442 30.2802 15.1851C31.9211 16.8261 32.843 19.0517 32.843 21.3723V31.5806H27.0097V21.3723C27.0097 20.5988 26.7024 19.8569 26.1554 19.3099C25.6084 18.7629 24.8665 18.4556 24.093 18.4556C23.3194 18.4556 22.5776 18.7629 22.0306 19.3099C21.4836 19.8569 21.1763 20.5988 21.1763 21.3723V31.5806H15.343V21.3723C15.343 19.0517 16.2649 16.8261 17.9058 15.1851C19.5467 13.5442 21.7723 12.6223 24.093 12.6223V12.6223Z" stroke="#A5A58D" stroke-width="2" stroke-linecap="round" stroke-linejoin="round"/>
<path d="M9.50963 14.0806H3.6763V31.5806H9.50963V14.0806Z" stroke="#A5A58D" stroke-width="2" stroke-linecap="round" stroke-linejoin="round"/>
<path d="M6.59297 9.70565C8.2038 9.70565 9.50963 8.39981 9.50963 6.78898C9.50963 5.17815 8.2038 3.87231 6.59297 3.87231C4.98214 3.87231 3.6763 5.17815 3.6763 6.78898C3.6763 8.39981 4.98214 9.70565 6.59297 9.70565Z" stroke="#A5A58D" stroke-width="2" stroke-linecap="round" stroke-linejoin="round"/>
</svg>
