<svg width="35" height="35" viewBox="0 0 35 35" fill="none" xmlns="http://www.w3.org/2000/svg">
<path d="M23.3335 11.6667C25.6541 11.6667 27.8797 12.5885 29.5207 14.2295C31.1616 15.8704 32.0835 18.096 32.0835 20.4167V30.625H26.2502V20.4167C26.2502 19.6431 25.9429 18.9012 25.3959 18.3543C24.8489 17.8073 24.107 17.5 23.3335 17.5C22.5599 17.5 21.8181 17.8073 21.2711 18.3543C20.7241 18.9012 20.4168 19.6431 20.4168 20.4167V30.625H14.5835V20.4167C14.5835 18.096 15.5054 15.8704 17.1463 14.2295C18.7873 12.5885 21.0129 11.6667 23.3335 11.6667V11.6667Z" stroke="#A5A58D" stroke-width="2" stroke-linecap="round" stroke-linejoin="round"/>
<path d="M8.74984 13.125H2.9165V30.625H8.74984V13.125Z" stroke="#A5A58D" stroke-width="2" stroke-linecap="round" stroke-linejoin="round"/>
<path d="M5.83317 8.74999C7.444 8.74999 8.74984 7.44415 8.74984 5.83332C8.74984 4.22249 7.444 2.91666 5.83317 2.91666C4.22234 2.91666 2.9165 4.22249 2.9165 5.83332C2.9165 7.44415 4.22234 8.74999 5.83317 8.74999Z" stroke="#A5A58D" stroke-width="2" stroke-linecap="round" stroke-linejoin="round"/>
</svg>
