<svg width="35" height="35" viewBox="0 0 35 35" fill="none" xmlns="http://www.w3.org/2000/svg">
<path d="M23.3333 11.6667C25.6539 11.6667 27.8795 12.5885 29.5204 14.2295C31.1614 15.8704 32.0833 18.096 32.0833 20.4167V30.625H26.2499V20.4167C26.2499 19.6431 25.9426 18.9012 25.3956 18.3543C24.8487 17.8073 24.1068 17.5 23.3333 17.5C22.5597 17.5 21.8178 17.8073 21.2709 18.3543C20.7239 18.9012 20.4166 19.6431 20.4166 20.4167V30.625H14.5833V20.4167C14.5833 18.096 15.5051 15.8704 17.1461 14.2295C18.787 12.5885 21.0126 11.6667 23.3333 11.6667V11.6667Z" stroke="#A5A58D" stroke-width="2" stroke-linecap="round" stroke-linejoin="round"/>
<path d="M8.75008 13.125H2.91675V30.625H8.75008V13.125Z" stroke="#A5A58D" stroke-width="2" stroke-linecap="round" stroke-linejoin="round"/>
<path d="M5.83341 8.74999C7.44424 8.74999 8.75008 7.44415 8.75008 5.83332C8.75008 4.22249 7.44424 2.91666 5.83341 2.91666C4.22258 2.91666 2.91675 4.22249 2.91675 5.83332C2.91675 7.44415 4.22258 8.74999 5.83341 8.74999Z" stroke="#A5A58D" stroke-width="2" stroke-linecap="round" stroke-linejoin="round"/>
</svg>
