<svg width="35" height="35" viewBox="0 0 35 35" fill="none" xmlns="http://www.w3.org/2000/svg">
<path d="M23.3333 11.667C25.6539 11.667 27.8795 12.5889 29.5204 14.2298C31.1614 15.8708 32.0833 18.0963 32.0833 20.417V30.6253H26.2499V20.417C26.2499 19.6434 25.9426 18.9016 25.3956 18.3546C24.8487 17.8076 24.1068 17.5003 23.3333 17.5003C22.5597 17.5003 21.8178 17.8076 21.2709 18.3546C20.7239 18.9016 20.4166 19.6434 20.4166 20.417V30.6253H14.5833V20.417C14.5833 18.0963 15.5051 15.8708 17.1461 14.2298C18.787 12.5889 21.0126 11.667 23.3333 11.667V11.667Z" stroke="#A5A58D" stroke-width="2" stroke-linecap="round" stroke-linejoin="round"/>
<path d="M8.75008 13.125H2.91675V30.625H8.75008V13.125Z" stroke="#A5A58D" stroke-width="2" stroke-linecap="round" stroke-linejoin="round"/>
<path d="M5.83341 8.75033C7.44424 8.75033 8.75008 7.44449 8.75008 5.83366C8.75008 4.22283 7.44424 2.91699 5.83341 2.91699C4.22258 2.91699 2.91675 4.22283 2.91675 5.83366C2.91675 7.44449 4.22258 8.75033 5.83341 8.75033Z" stroke="#A5A58D" stroke-width="2" stroke-linecap="round" stroke-linejoin="round"/>
</svg>
