<svg width="37" height="38" viewBox="0 0 37 38" fill="none" xmlns="http://www.w3.org/2000/svg">
<path d="M1 32.4067V14.6451C1 13.315 1.64984 12.0729 2.73172 11.3351L16.3428 2.05289C17.6491 1.16206 19.3509 1.16206 20.6572 2.05289L34.2683 11.3351C35.3502 12.0729 36 13.315 36 14.6451V32.4067M1 32.4067C1 34.6037 2.74111 36.3848 4.88889 36.3848H32.1111C34.2589 36.3848 36 34.6037 36 32.4067M1 32.4067L14.125 23.4559M36 32.4067L22.875 23.4559M1 14.5052L14.125 23.4559M36 14.5052L22.875 23.4559M22.875 23.4559L20.6572 24.9684C19.3509 25.8592 17.6491 25.8592 16.3428 24.9684L14.125 23.4559" stroke="#A5A58D" stroke-width="2" stroke-linecap="round" stroke-linejoin="round"/>
</svg>
