<svg width="36" height="36" viewBox="0 0 36 36" fill="none" xmlns="http://www.w3.org/2000/svg">
<path d="M1 18L4.77778 14.2222M4.77778 14.2222L18 1L31.2222 14.2222M4.77778 14.2222V33.1111C4.77778 34.1543 5.62346 35 6.66667 35H12.3333M31.2222 14.2222L35 18M31.2222 14.2222V33.1111C31.2222 34.1543 30.3765 35 29.3333 35H23.6667M12.3333 35C13.3765 35 14.2222 34.1543 14.2222 33.1111V25.5556C14.2222 24.5124 15.0679 23.6667 16.1111 23.6667H19.8889C20.9321 23.6667 21.7778 24.5124 21.7778 25.5556V33.1111C21.7778 34.1543 22.6235 35 23.6667 35M12.3333 35H23.6667" stroke="#A5A58D" stroke-width="2" stroke-linecap="round" stroke-linejoin="round"/>
</svg>
