<svg width="38" height="38" viewBox="0 0 38 38" fill="none" xmlns="http://www.w3.org/2000/svg">
<path d="M1.75964 32.9775V15.2159C1.75964 13.8858 2.40948 12.6437 3.49136 11.9059L17.1025 2.62369C18.4088 1.73286 20.1105 1.73286 21.4168 2.62369L35.0279 11.9059C36.1098 12.6437 36.7596 13.8858 36.7596 15.2159V32.9775M1.75964 32.9775C1.75964 35.1745 3.50076 36.9556 5.64853 36.9556H32.8708C35.0185 36.9556 36.7596 35.1745 36.7596 32.9775M1.75964 32.9775L14.8846 24.0267M36.7596 32.9775L23.6346 24.0267M1.75964 15.076L14.8846 24.0267M36.7596 15.076L23.6346 24.0267M23.6346 24.0267L21.4168 25.5392C20.1105 26.43 18.4088 26.43 17.1025 25.5392L14.8846 24.0267" stroke="#A5A58D" stroke-width="2" stroke-linecap="round" stroke-linejoin="round"/>
</svg>
