<svg width="37" height="37" viewBox="0 0 37 37" fill="none" xmlns="http://www.w3.org/2000/svg">
<path d="M1 32.0219V14.2604C1 12.9303 1.64984 11.6882 2.73172 10.9504L16.3428 1.66812C17.6491 0.777292 19.3509 0.777293 20.6572 1.66812L34.2683 10.9504C35.3502 11.6882 36 12.9303 36 14.2604V32.0219M1 32.0219C1 34.2189 2.74111 36 4.88889 36H32.1111C34.2589 36 36 34.2189 36 32.0219M1 32.0219L14.125 23.0711M36 32.0219L22.875 23.0711M1 14.1204L14.125 23.0711M36 14.1204L22.875 23.0711M22.875 23.0711L20.6572 24.5836C19.3509 25.4745 17.6491 25.4745 16.3428 24.5836L14.125 23.0711" stroke="#A5A58D" stroke-width="2" stroke-linecap="round" stroke-linejoin="round"/>
</svg>
